<svg version="1.1" xmlns="http://www.w3.org/2000/svg" xmlns:xlink="http://www.w3.org/1999/xlink" viewBox="0 0 172 172"><g fill="none" fill-rule="nonzero" stroke="none" stroke-width="1" stroke-linecap="butt" stroke-linejoin="miter" stroke-miterlimit="10" stroke-dasharray="" stroke-dashoffset="0" font-family="none" font-weight="none" font-size="none" text-anchor="none" style="mix-blend-mode: normal"><path d="M0,172v-172h172v172z" fill="none"></path><g fill="#ffffff"><path d="M85.91601,10.67301c-1.65726,0.02722 -3.20929,0.81744 -4.20622,2.1416l-17.42676,17.42676c-1.40412,1.34815 -1.96972,3.35005 -1.47867,5.23364c0.49105,1.8836 1.96202,3.35456 3.84561,3.84561c1.8836,0.49105 3.88549,-0.07455 5.23364,-1.47867l8.74137,-8.74137v26.44108c-0.02741,1.93842 0.99102,3.74144 2.66532,4.71865c1.6743,0.97721 3.74507,0.97721 5.41937,0c1.6743,-0.97721 2.69273,-2.78023 2.66532,-4.71865v-26.44108l8.74137,8.74137c1.34815,1.40412 3.35005,1.96972 5.23364,1.47867c1.8836,-0.49105 3.35456,-1.96202 3.84561,-3.84561c0.49105,-1.8836 -0.07455,-3.88549 -1.47867,-5.23364l-17.45475,-17.45475c-1.0325,-1.35277 -2.64457,-2.13674 -4.34619,-2.11361zM137.90234,62.65234c-2.18814,0.00053 -4.1576,1.32735 -4.98006,3.35504c-0.82245,2.0277 -0.33375,4.35156 1.23575,5.87624l8.74137,8.74137h-26.44108c-1.93842,-0.02741 -3.74144,0.99102 -4.71865,2.66532c-0.97721,1.6743 -0.97721,3.74507 0,5.41937c0.97721,1.6743 2.78023,2.69273 4.71865,2.66532h26.44108l-8.74137,8.74137c-1.40412,1.34815 -1.96971,3.35005 -1.47866,5.23364c0.49105,1.88359 1.96202,3.35456 3.84561,3.84561c1.88359,0.49105 3.88549,-0.07455 5.23364,-1.47866l17.45475,-17.45475c1.33141,-1.02108 2.10968,-2.60528 2.10419,-4.28314c-0.00549,-1.67786 -0.79412,-3.25693 -2.13218,-4.26927l-17.42676,-17.42676c-1.01222,-1.0424 -2.4033,-1.63064 -3.85628,-1.6307zM33.93669,62.65934c-1.39592,0.04068 -2.72121,0.62301 -3.69531,1.6237l-17.45475,17.45475c-1.33141,1.02108 -2.10968,2.60528 -2.10419,4.28314c0.00549,1.67786 0.79412,3.25693 2.13218,4.26927l17.42676,17.42676c1.34815,1.40412 3.35005,1.96972 5.23364,1.47867c1.8836,-0.49105 3.35456,-1.96202 3.84561,-3.84561c0.49105,-1.8836 -0.07455,-3.88549 -1.47867,-5.23364l-8.74137,-8.74137h26.44108c1.93842,0.02741 3.74144,-0.99102 4.71865,-2.66532c0.97721,-1.6743 0.97721,-3.74507 0,-5.41937c-0.97721,-1.6743 -2.78023,-2.69273 -4.71865,-2.66532h-26.44108l8.74137,-8.74137c1.58706,-1.54566 2.06336,-3.90666 1.19966,-5.94672c-0.8637,-2.04007 -2.89048,-3.34134 -5.10493,-3.27756zM86,68.08333c-5.5243,0 -10.34814,2.26514 -13.4235,5.72493c-3.07537,3.45979 -4.49316,7.86187 -4.49316,12.19173c0,4.32986 1.4178,8.73194 4.49316,12.19173c3.07537,3.45979 7.8992,5.72493 13.4235,5.72493c5.5243,0 10.34814,-2.26514 13.4235,-5.72493c3.07537,-3.45979 4.49316,-7.86187 4.49316,-12.19173c0,-4.32986 -1.4178,-8.73194 -4.49316,-12.19173c-3.07537,-3.45979 -7.8992,-5.72493 -13.4235,-5.72493zM86,78.83333c2.8368,0 4.28381,0.87027 5.389,2.11361c1.10519,1.24333 1.77767,3.11209 1.77767,5.05306c0,1.94097 -0.67248,3.80972 -1.77767,5.05306c-1.10519,1.24333 -2.55219,2.11361 -5.389,2.11361c-2.8368,0 -4.28381,-0.87027 -5.389,-2.11361c-1.10519,-1.24333 -1.77767,-3.11209 -1.77767,-5.05306c0,-1.94097 0.67248,-3.80972 1.77767,-5.05306c1.10519,-1.24333 2.55219,-2.11361 5.389,-2.11361zM85.91601,111.00635c-2.96578,0.04633 -5.33356,2.48614 -5.29101,5.45198v26.44108l-8.74137,-8.74137c-1.34815,-1.40412 -3.35005,-1.96971 -5.23364,-1.47866c-1.88359,0.49105 -3.35456,1.96202 -3.84561,3.84561c-0.49105,1.88359 0.07455,3.88549 1.47866,5.23364l17.45475,17.45475c1.02108,1.33141 2.60528,2.10968 4.28314,2.10419c1.67786,-0.00549 3.25693,-0.79412 4.26927,-2.13218l17.42676,-17.42676c1.40412,-1.34815 1.96971,-3.35005 1.47866,-5.23364c-0.49105,-1.88359 -1.96202,-3.35456 -3.84561,-3.84561c-1.88359,-0.49105 -3.88549,0.07455 -5.23364,1.47866l-8.74137,8.74137v-26.44108c0.02085,-1.45347 -0.54782,-2.85342 -1.57635,-3.88062c-1.02852,-1.0272 -2.4292,-1.59408 -3.88264,-1.57136z"></path></g></g></svg>
