<svg version="1.1" xmlns="http://www.w3.org/2000/svg" xmlns:xlink="http://www.w3.org/1999/xlink" viewBox="0 0 172 172"><g fill="none" fill-rule="nonzero" stroke="none" stroke-width="1" stroke-linecap="butt" stroke-linejoin="miter" stroke-miterlimit="10" stroke-dasharray="" stroke-dashoffset="0" font-family="none" font-weight="none" font-size="none" text-anchor="none" style="mix-blend-mode: normal"><path d="M0,172v-172h172v172z" fill="none"></path><g fill="#ffffff"><path d="M10.32,24.08c-5.6587,0 -10.32,4.6613 -10.32,10.32v103.2c0,5.6587 4.6613,10.32 10.32,10.32h151.36c5.6587,0 10.32,-4.6613 10.32,-10.32v-103.2c0,-5.6587 -4.6613,-10.32 -10.32,-10.32zM10.32,30.96h151.36c1.9437,0 3.44,1.4963 3.44,3.44v103.2c0,1.9437 -1.4963,3.44 -3.44,3.44h-151.36c-1.9437,0 -3.44,-1.4963 -3.44,-3.44v-103.2c0,-1.9437 1.4963,-3.44 3.44,-3.44zM13.76,37.84v27.52c-0.01754,1.24059 0.63425,2.39452 1.7058,3.01993c1.07155,0.62541 2.39684,0.62541 3.46839,0c1.07155,-0.62541 1.72335,-1.77935 1.7058,-3.01993v-20.64h20.64c1.24059,0.01754 2.39452,-0.63425 3.01993,-1.7058c0.62541,-1.07155 0.62541,-2.39684 0,-3.46839c-0.62541,-1.07155 -1.77935,-1.72335 -3.01993,-1.7058zM130.72,37.84c-1.24059,-0.01754 -2.39452,0.63425 -3.01993,1.7058c-0.62541,1.07155 -0.62541,2.39684 0,3.46839c0.62541,1.07155 1.77935,1.72335 3.01993,1.7058h20.64v20.64c-0.01754,1.24059 0.63425,2.39452 1.7058,3.01993c1.07155,0.62541 2.39684,0.62541 3.46839,0c1.07155,-0.62541 1.72335,-1.77935 1.7058,-3.01993v-27.52zM17.14625,103.15297c-1.89722,0.02966 -3.41223,1.58976 -3.38625,3.48703v27.52h27.52c1.24059,0.01754 2.39452,-0.63425 3.01993,-1.7058c0.62541,-1.07155 0.62541,-2.39684 0,-3.46839c-0.62541,-1.07155 -1.77935,-1.72335 -3.01993,-1.7058h-20.64v-20.64c0.01273,-0.92983 -0.35149,-1.82522 -1.00967,-2.48214c-0.65819,-0.65692 -1.55427,-1.01942 -2.48408,-1.00489zM154.74625,103.15297c-1.89722,0.02966 -3.41223,1.58976 -3.38625,3.48703v20.64h-20.64c-1.24059,-0.01754 -2.39452,0.63425 -3.01993,1.7058c-0.62541,1.07155 -0.62541,2.39684 0,3.46839c0.62541,1.07155 1.77935,1.72335 3.01993,1.7058h27.52v-27.52c0.01273,-0.92983 -0.35149,-1.82522 -1.00967,-2.48214c-0.65819,-0.65692 -1.55427,-1.01942 -2.48408,-1.00489z"></path></g></g></svg>
