<svg version="1.1" xmlns="http://www.w3.org/2000/svg" xmlns:xlink="http://www.w3.org/1999/xlink" viewBox="0 0 172 172"><g fill="none" fill-rule="nonzero" stroke="none" stroke-width="1" stroke-linecap="butt" stroke-linejoin="miter" stroke-miterlimit="10" stroke-dasharray="" stroke-dashoffset="0" font-family="none" font-weight="none" font-size="none" text-anchor="none" style="mix-blend-mode: normal"><path d="M0,172v-172h172v172z" fill="none"></path><g fill="#ffffff"><path d="M45.09983,126.90017c1.40108,1.40108 3.23217,2.09983 5.06683,2.09983c1.83467,0 3.66575,-0.69875 5.06683,-2.09983c2.79858,-2.79858 2.79858,-7.33508 0,-10.13367l-23.59983,-23.59983h108.73267l-23.59983,23.59983c-2.79858,2.79858 -2.79858,7.33508 0,10.13367c1.40108,1.40108 3.23217,2.09983 5.06683,2.09983c1.83467,0 3.66575,-0.69875 5.06683,-2.09983l35.83333,-35.83333c2.79858,-2.79858 2.79858,-7.33508 0,-10.13367l-35.83333,-35.83333c-2.79858,-2.79858 -7.33508,-2.79858 -10.13367,0c-2.79858,2.79858 -2.79858,7.33508 0,10.13367l23.59983,23.59983h-108.73267l23.59983,-23.59983c2.79858,-2.79858 2.79858,-7.33508 0,-10.13367c-2.79858,-2.79858 -7.33508,-2.79858 -10.13367,0l-35.83333,35.83333c-2.79858,2.79858 -2.79858,7.33508 0,10.13367z"></path></g></g></svg>
