<svg version="1.1" xmlns="http://www.w3.org/2000/svg" xmlns:xlink="http://www.w3.org/1999/xlink" viewBox="0 0 172 172"><g fill="none" fill-rule="nonzero" stroke="none" stroke-width="1" stroke-linecap="butt" stroke-linejoin="miter" stroke-miterlimit="10" stroke-dasharray="" stroke-dashoffset="0" font-family="none" font-weight="none" font-size="none" text-anchor="none" style="mix-blend-mode: normal"><path d="M0,172v-172h172v172z" fill="none"></path><g fill="#ffffff"><path d="M20.58625,6.83297c-1.89722,0.02966 -3.41223,1.58976 -3.38625,3.48703v37.84h5.19359h0.34266h32.30375c1.24059,0.01754 2.39452,-0.63425 3.01993,-1.7058c0.62541,-1.07155 0.62541,-2.39684 0,-3.46839c-0.62541,-1.07155 -1.77935,-1.72335 -3.01993,-1.7058h-25.73281c13.22775,-16.75035 33.66997,-27.52 56.69281,-27.52c39.9368,0 72.24,32.3032 72.24,72.24c0,39.9368 -32.3032,72.24 -72.24,72.24c-39.9368,0 -72.24,-32.3032 -72.24,-72.24c0.01754,-1.24059 -0.63425,-2.39452 -1.7058,-3.01993c-1.07155,-0.62541 -2.39684,-0.62541 -3.46839,0c-1.07155,0.62541 -1.72335,1.77935 -1.7058,3.01993c0,43.6552 35.4648,79.12 79.12,79.12c43.6552,0 79.12,-35.4648 79.12,-79.12c0,-43.6552 -35.4648,-79.12 -79.12,-79.12c-25.07002,0 -47.42104,11.70318 -61.92,29.92531v-26.48531c0.01273,-0.92983 -0.35149,-1.82522 -1.00967,-2.48214c-0.65819,-0.65692 -1.55427,-1.01942 -2.48408,-1.00489z"></path></g></g></svg>
